<svg id="Layer_1" data-name="Layer 1" xmlns="http://www.w3.org/2000/svg" xmlns:xlink="http://www.w3.org/1999/xlink" viewBox="0 0 469.52 143.45"><defs><style>.cls-1{fill:url(#New_Gradient_Swatch_1);}.cls-2{fill:#fff;}</style><linearGradient id="New_Gradient_Swatch_1" x1="75.06" y1="2.03" x2="75.06" y2="143.45" gradientUnits="userSpaceOnUse"><stop offset="0" stop-color="#02080e"/><stop offset="0.16" stop-color="#14070c"/><stop offset="0.5" stop-color="#440408"/><stop offset="0.96" stop-color="#900002"/><stop offset="1" stop-color="#970001"/></linearGradient></defs><title>6bit busters circle white</title><circle class="cls-1" cx="75.06" cy="72.74" r="70.71"/><path class="cls-2" d="M117.57,45.41c-.08-1.33-.2-3.37-1.67-4.78-2-1.94-5.23-1.37-8.75-.75s-7.16,1.27-10,4.54a12.56,12.56,0,0,0-2.74,5.76,9.32,9.32,0,0,1,.83-5c1-2.07,2.52-2.8,2.28-4.1-.2-1.1-1.39-1.18-2.5-2.58-1.34-1.66-1.21-3.53-1.37-4.85-.58-5-5.93-9.08-9.24-10.78A18.74,18.74,0,0,0,73.93,21a20.5,20.5,0,0,0-15.19,10.1c-1,1.93-1.18,3.48-3.06,6.08C54.3,39,53.12,40,53.19,41.57c.06,1.33,1,2,1.88,3.3a13.53,13.53,0,0,1,2.28,7.28,57.12,57.12,0,0,0-4-5.15c-2.73-3.17-4.25-4.93-6.52-6.22-3.77-2.14-10.23-3.33-13-.2-2.29,2.59-1,7-.81,7.88.92,3.28,2.53,3.88,10.11,12.34,2.56,2.85,4.25,4.87,5.21,8a16.79,16.79,0,0,1,.7,5.1,20.94,20.94,0,0,0-3.42-7.15c-1.3-1.75-3-4.05-4.56-3.72-1.84.39-2.42,4.2-2.73,6.22s-.67,4.37.35,6.67c1.24,2.81,3,2.38,5,5.31,2.27,3.4.7,5.07,2.78,8.16,2.41,3.58,7.33,5.44,8.76,4.2.79-.68.18-2,0-5.31a30,30,0,0,1,.55-7.66,24.49,24.49,0,0,0,0,7.13,20.32,20.32,0,0,0,4.55,10.77c2.3,2.6,4.77,3.72,8.64,5.46,6.49,2.92,10.79,3.12,10.77,4.1,0,1.84-15.42,1.18-16.47,5.6-.56,2.39,3.28,5.34,6,7.39s5.12,3,10.21,5c4.73,1.91,6.89,2.3,8.79,2.43a21.73,21.73,0,0,0,4.87-.23c1-.56,2-1.33,1.9-2.05-.15-.93-2.19-1.16-5.16-1.89a44.13,44.13,0,0,1-9-3.19c-.93-.48-6.44-3.34-6-5.3.4-1.73,5.26-2.34,9.45-2.87,3.58-.46,5.61-.32,7.06-1.93.12-.13,1.67-1.91,1.24-3.77-.79-3.35-7-2.59-10.62-6.3-1.74-1.78-3.51-5.25-2.42-12.74a15.3,15.3,0,0,0,.6,6.53c.29.9,1.56,4.83,3.34,4.85,1.07,0,1.25-1.42,3.47-3.11a10.66,10.66,0,0,1,4.25-2c3.12-.61,4,1.27,6.47.81,3.75-.7,5.76-5.66,6-6.22,1.25-3.22-.09-4.16,1.36-6.9s3-2.32,4.25-5c.89-1.9.81-3.61.68-6.44-.14-3-.32-6.82-1.74-7.28-2-.66-5.75,5.57-7.51,8.72a23.62,23.62,0,0,1,2.5-7.13,25.6,25.6,0,0,1,6.3-7.43c2.48-2.07,2.66-1.54,4.17-3.11C114.48,53.84,117.86,50.32,117.57,45.41ZM60.8,37a8.27,8.27,0,0,1,2.4-5A5.88,5.88,0,0,1,66.91,30a5.53,5.53,0,0,1,3.74,1.18,9.34,9.34,0,0,0-4.42.49A9.91,9.91,0,0,0,60.8,37Zm4.67,8.53c-1.82-1.09-1.54-4.14-1.43-5.31a8.57,8.57,0,0,1,1.13-3.54,8.45,8.45,0,0,1,1.9-2.22,14.91,14.91,0,0,0,.11,2.35c.16,1.25.25,1.89.73,2.4A2.9,2.9,0,0,0,70,40c.83,2.39,0,4.71-1.6,5.53A3.06,3.06,0,0,1,65.47,45.48ZM75.7,68.3a7,7,0,0,1-6.57-3.94,9.36,9.36,0,0,0,12.42.15A7.45,7.45,0,0,1,75.7,68.3Zm-.29-3.94c-2.2,0-3.89-3.1-5.21-5.47-2-3.65-3.26-8.68-1.85-9.54,1.25-.76,3.07,2.64,6.85,2.77,4.14.14,6.31-3.77,7.41-3.07C84.58,50.29,80.17,64.44,75.41,64.36Zm9.67-18.88a3.08,3.08,0,0,1-2.89,0c-1.82-1.09-1.54-4.14-1.43-5.31a8.57,8.57,0,0,1,1.13-3.54,8.45,8.45,0,0,1,1.9-2.22,14.91,14.91,0,0,0,.11,2.35c.16,1.25.25,1.89.73,2.4a2.91,2.91,0,0,0,2,.79C87.5,42.34,86.68,44.66,85.08,45.48Zm-.58-13.8a9.34,9.34,0,0,0-4.42-.49A5.55,5.55,0,0,1,83.82,30a5.88,5.88,0,0,1,3.71,1.9,8.27,8.27,0,0,1,2.4,5A9.91,9.91,0,0,0,84.5,31.68Z"/><path class="cls-2" d="M185.33,81.71a27.08,27.08,0,0,1-4.55-.36,14.8,14.8,0,0,1-3.62-1V75.1a21.42,21.42,0,0,0,3.7,1.18,17.9,17.9,0,0,0,3.86.45,10.31,10.31,0,0,0,3.4-.42,1.72,1.72,0,0,0,1.12-1.82,2.09,2.09,0,0,0-.55-1.52,4.74,4.74,0,0,0-1.79-1c-.82-.29-1.94-.64-3.36-1a17,17,0,0,1-4-1.69A5.59,5.59,0,0,1,177.42,67a7.48,7.48,0,0,1-.64-3.27,6.27,6.27,0,0,1,2.5-5.36q2.52-1.86,7.41-1.86a26.93,26.93,0,0,1,4.15.32,21.51,21.51,0,0,1,3.26.74v5.25a17.42,17.42,0,0,0-3.28-.95,17.17,17.17,0,0,0-3.21-.31,12.1,12.1,0,0,0-3.33.38A1.66,1.66,0,0,0,183,63.66a1.76,1.76,0,0,0,.45,1.27,3.94,3.94,0,0,0,1.58.86c.75.25,1.77.56,3.06.91a14.66,14.66,0,0,1,4.6,1.92,6,6,0,0,1,2.2,2.58,8.42,8.42,0,0,1,.61,3.29A6.35,6.35,0,0,1,193,79.71C191.33,81.05,188.77,81.71,185.33,81.71Z"/><path class="cls-2" d="M199,81.33V56.86h6.11V81.33Z"/><path class="cls-2" d="M207.86,81.33,216.79,69l-8.66-12.16h7.29l5.06,7.29,5.09-7.29h7.29L224.2,69l8.93,12.31h-7.37l-5.28-7.41-5.25,7.41Z"/><path class="cls-2" d="M245.18,81.33V56.86h12.91a7.88,7.88,0,0,1,5.57,1.75,6.38,6.38,0,0,1,1.88,4.94,6.48,6.48,0,0,1-.74,3.25,5.32,5.32,0,0,1-2,2,5.86,5.86,0,0,1,2.63,1.78,5.6,5.6,0,0,1,.95,3.54,6.81,6.81,0,0,1-2.06,5.34,8.5,8.5,0,0,1-5.89,1.84Zm6.11-14.52h5a3.19,3.19,0,0,0,2.32-.72,2.72,2.72,0,0,0,.72-2,2.82,2.82,0,0,0-.72-2.11,3.76,3.76,0,0,0-2.62-.7h-4.68Zm0,10.15h5.59a3.87,3.87,0,0,0,2.49-.68,3.07,3.07,0,0,0,.81-2.44,2.64,2.64,0,0,0-.79-2.1,4.17,4.17,0,0,0-2.74-.71h-5.36Z"/><path class="cls-2" d="M269.91,81.33V56.86H276V81.33Z"/><path class="cls-2" d="M286,81.33V61.57h-7.18V56.86h20.48v4.71h-7.18V81.33Z"/><path class="cls-2" d="M310.91,81.33V56.86h12.92a7.88,7.88,0,0,1,5.57,1.75,6.41,6.41,0,0,1,1.88,4.94,6.59,6.59,0,0,1-.74,3.25,5.39,5.39,0,0,1-2,2,5.86,5.86,0,0,1,2.63,1.78,5.6,5.6,0,0,1,1,3.54,6.81,6.81,0,0,1-2.06,5.34,8.5,8.5,0,0,1-5.89,1.84ZM317,66.81h5a3.19,3.19,0,0,0,2.32-.72,2.72,2.72,0,0,0,.72-2,2.82,2.82,0,0,0-.72-2.11,3.76,3.76,0,0,0-2.62-.7H317ZM317,77h5.59a3.87,3.87,0,0,0,2.49-.68,3.07,3.07,0,0,0,.81-2.44,2.64,2.64,0,0,0-.79-2.1,4.17,4.17,0,0,0-2.74-.71H317Z"/><path class="cls-2" d="M346.71,81.71a14.9,14.9,0,0,1-5.95-1.1,8.64,8.64,0,0,1-3.91-3.27A9.62,9.62,0,0,1,335.46,72V56.86h6.12V71.45a5,5,0,0,0,1.33,3.8,6.4,6.4,0,0,0,7.6,0,5,5,0,0,0,1.33-3.8V56.86H358V72a9.71,9.71,0,0,1-1.39,5.32,8.69,8.69,0,0,1-3.91,3.27A14.9,14.9,0,0,1,346.71,81.71Z"/><path class="cls-2" d="M369.81,81.71a27,27,0,0,1-4.54-.36,15,15,0,0,1-3.63-1V75.1a21.54,21.54,0,0,0,3.71,1.18,17.83,17.83,0,0,0,3.86.45,10.35,10.35,0,0,0,3.4-.42,1.73,1.73,0,0,0,1.12-1.82,2.13,2.13,0,0,0-.55-1.52,4.82,4.82,0,0,0-1.79-1c-.82-.29-1.94-.64-3.36-1a16.79,16.79,0,0,1-4-1.69A5.59,5.59,0,0,1,361.91,67a7.47,7.47,0,0,1-.65-3.27,6.28,6.28,0,0,1,2.51-5.36q2.5-1.86,7.41-1.86a26.7,26.7,0,0,1,4.14.32,21.39,21.39,0,0,1,3.27.74v5.25a17.3,17.3,0,0,0-3.29-.95,17.09,17.09,0,0,0-3.21-.31,12,12,0,0,0-3.32.38,1.66,1.66,0,0,0-1.27,1.75,1.76,1.76,0,0,0,.45,1.27,3.94,3.94,0,0,0,1.58.86c.74.25,1.77.56,3.06.91a14.49,14.49,0,0,1,4.59,1.92,6.07,6.07,0,0,1,2.21,2.58,8.61,8.61,0,0,1,.61,3.29,6.35,6.35,0,0,1-2.51,5.22C375.82,81.05,373.26,81.71,369.81,81.71Z"/><path class="cls-2" d="M388.39,81.33V61.57h-7.18V56.86H401.7v4.71h-7.19V81.33Z"/><path class="cls-2" d="M404.81,81.33V56.86h18.05v4.71H410.93V66.7h10.53v4.79H410.93v5.13h11.93v4.71Z"/><path class="cls-2" d="M426.17,81.33V56.86H438.4q4.34,0,6.39,2.28a8.84,8.84,0,0,1,2,6.12,7.42,7.42,0,0,1-4.68,7.1,3.75,3.75,0,0,1,.86.93,10.64,10.64,0,0,1,.7,1.43l2.89,6.61h-6.38l-2.74-6.23a2.63,2.63,0,0,0-.87-1.16,2.71,2.71,0,0,0-1.52-.36h-2.82v7.75Zm6.11-12.46h4.53a4,4,0,0,0,2.79-.9,3.44,3.44,0,0,0,1-2.71q0-3.69-3.54-3.69h-4.79Z"/><path class="cls-2" d="M458.12,81.71a27,27,0,0,1-4.54-.36,15,15,0,0,1-3.63-1V75.1a21.54,21.54,0,0,0,3.71,1.18,17.83,17.83,0,0,0,3.86.45,10.31,10.31,0,0,0,3.4-.42A1.73,1.73,0,0,0,462,74.49a2.13,2.13,0,0,0-.55-1.52,4.82,4.82,0,0,0-1.79-1c-.82-.29-1.94-.64-3.36-1a17,17,0,0,1-4-1.69A5.59,5.59,0,0,1,450.22,67a7.47,7.47,0,0,1-.65-3.27,6.28,6.28,0,0,1,2.51-5.36c1.68-1.24,4.14-1.86,7.41-1.86a26.7,26.7,0,0,1,4.14.32,21.39,21.39,0,0,1,3.27.74v5.25a17.91,17.91,0,0,0-6.5-1.26,12.07,12.07,0,0,0-3.32.38,1.66,1.66,0,0,0-1.27,1.75,1.76,1.76,0,0,0,.45,1.27,3.94,3.94,0,0,0,1.58.86c.75.25,1.77.56,3.06.91a14.66,14.66,0,0,1,4.6,1.92,6,6,0,0,1,2.2,2.58,8.42,8.42,0,0,1,.61,3.29,6.35,6.35,0,0,1-2.51,5.22C464.13,81.05,461.57,81.71,458.12,81.71Z"/></svg>